<svg version="1" xmlns="http://www.w3.org/2000/svg" width="720" height="720" viewBox="0 0 540.000000 540.000000"><path d="M249.8.5c-.1.1-3.2.6-6.8.9-3.6.4-7.8.9-9.5 1.1-1.6.3-4.6.7-6.5 1-13.5 1.9-42.6 9.6-51.5 13.5-1.1.5-6.4 2.7-11.8 5-11 4.5-35.1 17-36.7 19-.3.3-3 2.1-6 4-6.9 4.3-17.1 11.8-18.7 13.8-.7.9-1.3 1.2-1.3.8 0-.4-.6-.1-1.4.6-.7.7-4.6 4.2-8.6 7.8-11.5 10.3-22.2 21.3-30 31-1.1 1.4-2.5 3.2-3.2 4-3.6 4.1-15.8 21.8-15.8 22.9 0 .5-.4 1.1-.8 1.3-1.5.6-14.5 25.2-19.2 36.3-.5 1.1-1.8 4-2.8 6.5-4.2 9.7-11.7 34.6-13.8 46-.2 1.4-.6 3.4-.9 4.6-.7 3.1-2.5 16-3.3 23.4-.9 8.6-.9 42.5.1 52 1.2 11.8 2.7 21.6 4.9 31 .5 2.5 1.1 5.2 1.3 6 .2.8 1 4.2 1.9 7.5 1 3.3 1.8 6.4 2 7 .1.5 1.1 3.5 2.1 6.5 1.1 3 1.9 5.7 2 6 .4 4 14.1 33.7 21.3 46.3 2.8 4.8 14.6 22.4 17.2 25.7 1.1 1.4 3.4 4.3 5.1 6.5 7.1 9.3 27 30.1 33.7 35.2 1.3 1 3.9 3.3 5.8 5 1.9 1.8 3.4 2.9 3.4 2.5 0-.4.4-.2.8.4.4.6 3.4 3 6.7 5.5 3.3 2.4 6.2 4.7 6.3 5.1.2.5.8.8 1.2.8.5 0 4.7 2.4 9.2 5.4 11.2 7.3 39.7 21.8 45.3 23.1 1.3.3 4.4 1.4 7 2.6 6.1 2.6 31.1 9.4 42 11.4 18.2 3.2 27.2 3.9 50 3.9 18.3 0 28.8-.5 35.5-1.8 1.4-.2 4.7-.7 7.4-1.1 2.7-.3 5.2-.8 5.5-1 .3-.1 2.4-.6 4.6-.9 2.2-.4 5.8-1.1 8-1.7 2.2-.6 4.9-1.3 5.9-1.5 4.3-.8 20.3-5.8 22.8-7 1.5-.8 2.9-1.4 3-1.3.2 0 1.6-.4 3.1-1 1.6-.6 3.1-1.1 3.4-1.1 1.7 0 25.4-11.5 34.6-16.9 15.1-8.7 33.3-21.6 43.2-30.6 7.3-6.6 21.4-20.7 25.5-25.6 2.5-2.9 5-5.7 5.5-6.3.6-.6 3-3.8 5.5-7.1s4.7-6.2 5-6.5c.9-.8 11.5-17.1 14.3-22 4.6-8 17.7-35 17.7-36.6 0-.3.6-2 1.4-3.7 1.2-2.9 3.2-8.8 6.4-18.7 1.2-3.8 4.2-15.3 4.8-18.5.2-1.1.6-3.1.9-4.5.3-1.4.8-3.6 1.1-5 2.6-12.5 4.1-32.3 3.9-52.5-.3-24.4-1.5-34.9-7-59.9-1.1-4.7-5.9-20.9-8.6-28.4-2.7-7.7-4.7-12.5-10.5-24.8-1.3-2.8-2.4-5.6-2.4-6.2 0-.7-.4-1.2-.9-1.2s-1.1-.8-1.4-1.8c-1.7-5.4-14.7-25.7-24.7-38.8-13.1-17.1-32.3-36.5-47.2-47.6-2-1.5-4.3-3.4-5.1-4.2-.8-.8-1.7-1.2-2.1-.9-.3.4-.6.2-.6-.3s-1.8-2-4-3.4-4-2.8-4-3.2c0-.5-.5-.8-1.1-.8-.6 0-2.5-1-4.2-2.3-9.1-6.5-47.7-26-47.7-24 0 .3-.6.1-1.2-.4C362.9 15.2 326 5 313.5 3.6c-1.1-.2-4-.6-6.5-1-2.5-.3-6.3-.9-8.5-1.2-4.3-.6-48.1-1.5-48.7-.9z"/></svg>